<svg width="25" height="20" viewBox="0 0 25 20" fill="none" xmlns="http://www.w3.org/2000/svg">
<path d="M1.40528 11.8883L1.36626 11.88L18.0951 11.88L12.8362 16.9564C12.5787 17.2043 12.4374 17.54 12.4374 17.8924C12.4374 18.2448 12.5787 18.5782 12.8362 18.8266L13.6545 19.6151C13.9118 19.863 14.2547 20 14.6203 20C14.9862 20 15.3293 19.8639 15.5866 19.6161L24.6014 10.9341C24.8598 10.6853 25.001 10.3538 25 10.0013C25.001 9.64674 24.8598 9.31511 24.6014 9.06669L15.5866 0.383896C15.3293 0.136253 14.9864 0 14.6203 0C14.2547 0 13.9118 0.136448 13.6545 0.383896L12.8362 1.17244C12.5787 1.41989 12.4374 1.75034 12.4374 2.10272C12.4374 2.4549 12.5787 2.76793 12.8362 3.01557L18.1545 8.12036L1.38658 8.12036C0.633129 8.12036 0 8.74583 0 9.47114V10.5864C0 11.3117 0.651829 11.8883 1.40528 11.8883Z" fill="#343444"/>
</svg>
