<svg width="52" height="52" viewBox="0 0 52 52" fill="none" xmlns="http://www.w3.org/2000/svg">
<path d="M35.6602 29.3188L28.6003 24.9808C28.5143 24.9279 28.4154 24.8921 28.3155 24.8764L26.1052 24.4864C25.6963 24.4141 25.2948 24.6955 25.2227 25.1043C25.1506 25.5132 25.4316 25.9148 25.8405 25.9869L27.9263 26.355L34.8627 30.6171C35.2013 30.8252 35.6657 30.7241 35.8905 30.3971C36.1316 30.0461 36.0227 29.5417 35.6602 29.3188Z" fill="white"/>
<path d="M51.7465 29.5632C51.4591 29.2557 50.9771 29.2395 50.6697 29.5267L47.5812 32.4131L33.4297 18.4501L51.7108 1.31771C52.0177 1.02999 52.0333 0.547871 51.7457 0.240949C51.4581 -0.0659727 50.9759 -0.0816133 50.6689 0.206012L31.8098 17.8801C31.4988 18.1715 31.4923 18.6789 31.7957 18.9783L33.0474 20.2132L32.6479 20.566L24.2811 19.8456C24.152 19.8346 24.0178 19.8568 23.9 19.9113L17.2707 22.9305C17.2514 22.9255 17.2321 22.9207 17.2121 22.9171L13.3989 22.2442L13.7072 21.4559C13.8597 21.0661 13.6692 20.6264 13.2806 20.4711L1.09152 15.5955C0.700706 15.439 0.257487 15.6292 0.101284 16.0199C-0.0550208 16.4105 0.135003 16.8539 0.525714 17.0101L12.0127 21.605L5.24339 38.9041L1.06288 37.4234C0.666175 37.283 0.230878 37.4905 0.0904167 37.8872C-0.0500442 38.2838 0.157651 38.7192 0.554253 38.8597L5.42986 40.5864C5.81255 40.722 6.24582 40.5237 6.39359 40.1459L7.52489 37.2548L10.4892 38.9159L10.1623 39.4459C9.23592 40.9473 9.70361 42.9225 11.2051 43.8489C11.9991 44.3389 12.9848 44.4551 13.872 44.1678C14.0143 45.0925 14.5577 45.9176 15.3544 46.4091C16.1485 46.8991 17.134 47.0153 18.0214 46.728C18.1638 47.6527 18.7069 48.4776 19.5037 48.9693C20.3001 49.4608 21.2806 49.5765 22.1708 49.2891C22.3134 50.2134 22.8565 51.038 23.653 51.5295C24.8107 52.2438 26.3431 52.1371 27.3867 51.2624C27.6497 51.0419 27.8761 50.7788 28.0563 50.4867L28.576 49.6445L29.0038 49.9073C30.1631 50.6196 31.695 50.5099 32.737 49.6333C32.9996 49.4123 33.2255 49.1488 33.4052 48.8564C33.7622 48.2751 33.91 47.6237 33.871 46.9896C34.1129 47.0478 34.3605 47.079 34.6104 47.079C35.7168 47.079 36.7634 46.4956 37.3424 45.5533C37.6912 44.9855 37.8505 44.3383 37.8101 43.6867C38.0514 43.7446 38.2985 43.7757 38.5476 43.7757C39.654 43.7757 40.7007 43.1922 41.2796 42.2499C41.6287 41.6818 41.7879 41.0341 41.7472 40.3821C41.9911 40.4402 42.2389 40.4706 42.4854 40.4706C43.5614 40.4706 44.6135 39.9288 45.2169 38.9468C46.1405 37.4436 45.669 35.4693 44.1658 34.5457L43.6438 34.225L45.3946 32.3956L47.0323 34.0115C47.3195 34.2948 47.7929 34.3011 48.0875 34.0258L51.7104 30.64C52.0176 30.3527 52.0338 29.8706 51.7465 29.5632ZM14.3116 42.006C13.8262 42.7924 12.7916 43.0374 12.0051 42.5523C11.2186 42.067 10.9737 41.0324 11.4588 40.2459L15.7259 33.3304C16.2021 32.5585 17.224 32.3062 18.0043 32.7672C18.8117 33.2445 19.0346 34.3514 18.5498 35.1372L14.3116 42.006ZM18.4607 44.5662C17.9756 45.3526 16.9409 45.5976 16.1545 45.1125C15.3775 44.633 15.128 43.5843 15.6082 42.8061L19.0217 37.2737C19.4979 36.5019 20.5198 36.2494 21.3001 36.7104C22.1075 37.1878 22.3304 38.2947 21.8455 39.0805L18.4607 44.5662ZM22.6104 47.1264C22.3752 47.5073 22.0057 47.774 21.5702 47.8772C21.1344 47.9805 20.6848 47.9077 20.3038 47.6727C19.5269 47.1932 19.2774 46.1444 19.7576 45.3663L22.3178 41.2169C22.794 40.4451 23.816 40.1927 24.5962 40.6537C25.4037 41.131 25.6265 42.238 25.1417 43.0237L22.6104 47.1264ZM28.4376 46.9672L26.7596 49.6866C26.2801 50.4636 25.2314 50.7129 24.4531 50.2329C23.6763 49.7535 23.4268 48.7045 23.9069 47.9265L25.6137 45.1603C26.0899 44.3886 27.1119 44.1359 27.8921 44.5971C28.6996 45.0744 28.9224 46.1814 28.4376 46.9672ZM42.3155 33.4088L38.5392 31.0884C38.189 30.8732 37.7065 30.9885 37.4914 31.3387C37.2762 31.6889 37.3915 32.1714 37.7417 32.3865L43.3679 35.8436C44.1552 36.3274 44.4022 37.3615 43.9185 38.1489C43.4347 38.9363 42.4004 39.1833 41.613 38.6995L35.5789 34.9917C35.2205 34.7713 34.7513 34.8835 34.5311 35.2419C34.3109 35.6003 34.4229 36.0696 34.7813 36.2897L39.4309 39.1467C40.2087 39.6246 40.4601 40.6731 39.9814 41.4521C39.5035 42.2299 38.455 42.4812 37.6761 42.0026L33.4624 39.4135C33.1039 39.1932 32.6348 39.3053 32.4146 39.6638C32.1944 40.0222 32.3064 40.4914 32.6649 40.7116L35.4938 42.4498C36.2715 42.9279 36.523 43.9761 36.0444 44.7552C35.5664 45.5329 34.518 45.7844 33.739 45.3058C33.739 45.3058 31.2511 43.7786 31.2279 43.7674C30.88 43.5994 30.4547 43.7189 30.2483 44.0549C30.0281 44.4133 30.1401 44.8825 30.4985 45.1027L31.5567 45.7529C32.344 46.2368 32.5909 47.2709 32.1072 48.0583C31.6292 48.8362 30.5808 49.0874 29.8018 48.6089L29.3765 48.3475L29.7347 47.7668C30.1926 47.0246 30.3347 46.1105 30.1245 45.259C29.9171 44.4187 29.3997 43.7177 28.668 43.2852C28.097 42.9478 27.4583 42.8111 26.8363 42.853C26.9531 42.3513 26.9537 41.8226 26.8286 41.3157C26.6212 40.4753 26.1038 39.7744 25.3721 39.3418C24.8011 39.0043 24.1624 38.8676 23.5404 38.9095C23.8545 37.56 23.2762 36.1079 22.0762 35.3984C21.5052 35.061 20.8664 34.9243 20.2445 34.9662C20.5586 33.6166 19.9803 32.1646 18.7803 31.4551C17.2904 30.5744 15.3389 31.0567 14.4299 32.5298L11.2906 37.6177L8.08552 35.8223L12.8323 23.6914L15.4169 24.1475C14.6818 25.0606 14.4751 26.3461 14.9931 27.4837C15.5291 28.6606 16.6937 29.357 17.9098 29.3569C18.3527 29.3569 18.8025 29.2645 19.2312 29.0693L23.6926 27.0372C24.0704 26.8652 24.2423 26.406 24.0701 26.0282C23.8981 25.6505 23.4389 25.4784 23.0611 25.6507L18.5996 27.6826C17.7587 28.0657 16.7627 27.6931 16.3796 26.8521C15.9966 26.011 16.3692 25.0152 17.2102 24.6321L24.3494 21.3806L32.8419 22.1119C32.8637 22.1139 32.8856 22.1148 32.9073 22.1148C33.0921 22.1148 33.2716 22.0474 33.4114 21.9241L34.1344 21.2858L44.3095 31.3252L42.3155 33.4088Z" fill="white"/>
</svg>
