<svg width="150" height="84" viewBox="0 0 150 84" fill="none" xmlns="http://www.w3.org/2000/svg">
<path fill-rule="evenodd" clip-rule="evenodd" d="M74.1874 11.4398C73.5514 11.7709 72.5531 12.2914 71.9689 12.5965C71.3842 12.9019 70.2593 13.4855 69.4688 13.8934C68.6782 14.3016 67.5019 14.9144 66.855 15.2557C66.2081 15.597 65.6527 15.876 65.6209 15.876C65.5879 15.876 65.5624 16.2317 65.5624 16.6963V17.5165L65.8283 17.3804C65.9741 17.3052 66.4732 17.0399 66.9375 16.79C67.4014 16.5405 68.1469 16.1436 68.5939 15.9085C69.0405 15.673 69.603 15.3744 69.8438 15.2451C70.0845 15.1155 70.8577 14.7053 71.5624 14.333C72.2674 13.9607 72.9281 13.6065 73.0312 13.5456C73.4134 13.3207 75.3056 12.3481 75.3615 12.3481C75.3934 12.3481 75.6555 12.4857 75.9443 12.6543C76.2326 12.8225 76.9046 13.2153 77.4375 13.5267C77.9704 13.8382 78.6735 14.2491 79.0001 14.4396C79.3264 14.6301 80.2969 15.1971 81.1564 15.6999C83.9422 17.3298 84.8066 17.8291 84.8411 17.8291C84.8599 17.8291 84.8749 17.4893 84.8749 17.0743V16.3194L84.6139 16.1852C84.4702 16.1115 83.781 15.7142 83.082 15.3022C82.383 14.8902 81.7969 14.553 81.7793 14.553C81.7616 14.553 81.6311 14.4789 81.489 14.3886C81.1616 14.1803 79.7445 13.3559 79.7134 13.3559C79.701 13.3559 79.4014 13.182 79.0485 12.9696C78.6952 12.7567 78.0829 12.3984 77.6876 12.1727C77.292 11.9474 76.6436 11.5698 76.2461 11.3336C75.849 11.0973 75.4834 10.8894 75.4339 10.8713C75.3844 10.8531 74.8234 11.109 74.1874 11.4398ZM74.9689 15.0179C74.7626 15.1321 74.0171 15.5229 73.3125 15.8873C72.6079 16.2514 71.5954 16.7764 71.0625 17.0538C70.5296 17.3317 69.5032 17.8658 68.7814 18.2411C68.0595 18.6165 67.047 19.1434 66.5314 19.4122L65.5939 19.9009L65.5624 20.6921C65.5451 21.1272 65.5433 21.4833 65.5583 21.4833C65.6029 21.4829 66.7327 20.8924 68.9689 19.701C71.7229 18.2332 71.9411 18.1175 72.9064 17.6084C73.353 17.3729 73.8592 17.1034 74.0314 17.0096C74.2031 16.9159 74.5732 16.7201 74.8541 16.5738L75.3641 16.3088L75.7916 16.5541C76.4002 16.9038 79.3402 18.6191 79.7501 18.8637C79.9391 18.9767 80.5579 19.3396 81.1249 19.67C81.6922 20.0004 82.743 20.6146 83.46 21.0346C84.1774 21.4545 84.789 21.7981 84.8194 21.7981C84.8501 21.7981 84.8737 21.4647 84.8722 21.0576L84.8696 20.3175L83.7319 19.6628C81.8528 18.5821 80.6617 17.8926 80.5624 17.828C80.511 17.7947 80.3284 17.6923 80.157 17.6004C79.9856 17.509 79.7467 17.371 79.626 17.2943C79.5052 17.2175 78.942 16.8853 78.375 16.556C77.8076 16.2268 76.899 15.6983 76.3556 15.3812C75.8119 15.0644 75.3619 14.8063 75.3555 14.8078C75.3491 14.8097 75.1751 14.9042 74.9689 15.0179ZM74.6561 19.109C74.3812 19.2576 73.5375 19.7002 72.7811 20.093C72.0251 20.4857 70.8296 21.1064 70.125 21.4723C69.4204 21.8382 68.3936 22.3731 67.8439 22.6607C67.2938 22.9488 66.5272 23.3472 66.1406 23.5464L65.4375 23.9085V24.6804C65.4375 25.1049 65.4589 25.4519 65.4851 25.4519C65.5117 25.4519 65.631 25.4001 65.751 25.3366C65.8706 25.2731 66.3626 25.0138 66.8437 24.7605C67.8409 24.2355 69.6472 23.2742 70.2499 22.9476C70.4734 22.8267 71.0359 22.5277 71.5001 22.2839C71.964 22.0397 72.9982 21.4904 73.7981 21.0637L75.2527 20.2869L75.8606 20.6396C76.1951 20.8335 76.6939 21.126 76.9688 21.2897C77.2436 21.4538 77.7641 21.7599 78.1249 21.9701C78.486 22.1807 79.653 22.8626 80.7188 23.4855C81.7845 24.1085 83.1202 24.8883 83.6876 25.2179L84.7189 25.8174L84.7365 25.1189C84.7586 24.2521 84.7912 24.3217 84.2074 23.989C83.9385 23.8355 83.1424 23.374 82.4374 22.9631C81.7327 22.5522 81.0439 22.1531 80.9062 22.0763C80.7686 21.9992 79.8405 21.4636 78.8438 20.8853C77.847 20.3073 76.8765 19.7479 76.6875 19.6424C76.4985 19.5366 76.3132 19.4262 76.2761 19.3967C76.1359 19.2856 75.2925 18.8369 75.2257 18.838C75.1875 18.8388 74.9314 18.9605 74.6561 19.109ZM57.8749 19.5154C55.1336 20.9321 53.7135 21.6688 52.9999 22.0438C52.536 22.288 51.7024 22.7216 51.1477 23.0073L50.1394 23.5267L50.1292 24.1742C50.1214 24.6687 50.1382 24.8217 50.2001 24.8217C50.2706 24.8214 51.0075 24.4362 54.8437 22.3946C57.4252 21.0206 58.3515 20.5386 58.4115 20.5383C58.449 20.5383 58.6879 20.6407 58.9429 20.7662C59.3546 20.9688 60.795 21.6571 62.1251 22.2865C62.3828 22.4082 62.9707 22.6887 63.432 22.9094C63.8929 23.1302 64.2769 23.3037 64.2855 23.2946C64.2937 23.2859 64.2825 23.0017 64.2596 22.6634L64.2187 22.0484L62.1251 21.0349C60.9735 20.4774 59.6655 19.8458 59.2189 19.6311L58.4062 19.241L57.8749 19.5154ZM90.6562 19.6915C90.1406 19.9437 89.4094 20.299 89.0314 20.4804C86.4146 21.738 85.7797 22.0586 85.7692 22.1285C85.7625 22.172 85.7467 22.4528 85.734 22.753C85.7066 23.3895 85.5994 23.3759 86.6588 22.8701C87.0356 22.6902 88.2975 22.0888 89.463 21.5335L91.5825 20.5243L91.8067 20.6305C92.1274 20.7821 94.6136 22.0967 96.8438 23.2939C98.6516 24.2642 99.7331 24.8221 99.807 24.8221C99.8599 24.8221 99.8783 24.638 99.8707 24.1746L99.8606 23.5271L98.8522 23.0058C98.2976 22.7189 97.4782 22.2925 97.0312 22.0582C96.5843 21.8238 95.403 21.2122 94.4062 20.6985C93.4095 20.1852 92.3689 19.645 92.0936 19.4988L91.5938 19.2326L90.6562 19.6915ZM57.9064 22.4581C57.6311 22.6021 56.928 22.9661 56.3437 23.267C55.7595 23.5679 54.522 24.2094 53.5939 24.6932C52.6657 25.1767 51.5089 25.7781 51.0229 26.0298L50.1394 26.4872L50.1292 27.1351C50.1217 27.6016 50.1397 27.783 50.1937 27.783C50.2598 27.783 50.9936 27.4076 52.5937 26.5553C52.8686 26.409 53.403 26.1247 53.7814 25.924C54.1594 25.7233 54.6094 25.4825 54.7811 25.3887C54.9532 25.295 55.4314 25.0399 55.8439 24.8217C56.2564 24.604 56.7907 24.3205 57.0311 24.1924C57.2719 24.0639 57.6727 23.8518 57.9217 23.721L58.3747 23.4836L58.6717 23.6129C58.8352 23.684 59.3344 23.9176 59.7814 24.1319C64.6024 26.4437 64.3477 26.3432 64.2896 25.9157C64.2679 25.755 64.2499 25.4863 64.2499 25.3184V25.0138L63.7969 24.7987C62.7716 24.3126 59.3171 22.646 58.5626 22.2733C58.4235 22.2049 58.3511 22.2253 57.9064 22.4581ZM91.3751 22.3039C91.3234 22.3356 90.5501 22.7129 89.6561 23.143C88.7625 23.5728 87.6375 24.1153 87.1564 24.3477C86.6749 24.5806 86.1637 24.8274 86.0197 24.8958L85.7588 25.021L85.7385 25.5895C85.7276 25.9021 85.7329 26.1791 85.7501 26.2052C85.7764 26.2449 87.8884 25.2621 90.8152 23.8476C91.7111 23.4148 91.4329 23.3464 93.6251 24.5375C94.0204 24.7526 94.7093 25.1204 95.1562 25.3555C95.6032 25.5902 96.1658 25.8888 96.4061 26.0185C98.3805 27.0826 99.7271 27.783 99.7984 27.783C99.8415 27.783 99.8655 27.5539 99.8655 27.1374L99.8651 26.4914L98.667 25.8699C98.0081 25.5279 97.047 25.0281 96.5314 24.7594C96.0157 24.4906 95.0033 23.9652 94.2814 23.5917C93.5595 23.2183 92.6786 22.7613 92.3242 22.576C91.6736 22.2358 91.5457 22.1992 91.3751 22.3039ZM74.2811 23.3003C73.7655 23.5702 72.6124 24.1686 71.7188 24.6301C70.8251 25.0916 69.9532 25.5464 69.7811 25.6409C69.4481 25.8242 65.8144 27.701 65.5785 27.8117C65.4442 27.8749 65.4386 27.9104 65.4379 28.6819L65.4375 29.4866L65.703 29.3509C65.8492 29.2765 66.6859 28.8335 67.5626 28.3666C68.439 27.8998 69.4796 27.3468 69.8749 27.1381C70.2701 26.9291 70.7906 26.6524 71.0314 26.5227C72.9772 25.4742 75.192 24.3179 75.2542 24.3179C75.2959 24.3179 75.9649 24.6906 76.7411 25.1461C77.5178 25.6016 78.2786 26.045 78.4324 26.1315C78.5865 26.2181 78.8542 26.3742 79.0279 26.4781C79.8724 26.9839 84.7035 29.7989 84.7267 29.7989C84.7417 29.7989 84.7459 29.4553 84.7361 29.0353L84.7189 28.2718L83.9062 27.8008C83.4593 27.5415 82.9811 27.2659 82.8439 27.188C82.7062 27.1102 82.1156 26.7681 81.5314 26.4275C80.427 25.7841 78.1538 24.4683 77.7188 24.2207C77.5811 24.1425 77.1172 23.8737 76.6875 23.6235C76.2578 23.3733 75.8077 23.1124 75.6874 23.0444C75.567 22.976 75.4421 22.8943 75.4095 22.863C75.3112 22.7688 75.2557 22.7904 74.2811 23.3003ZM57.804 25.5895C57.4822 25.7611 56.3891 26.33 55.3751 26.8535C54.3607 27.3766 53.2076 27.9773 52.8124 28.1878C52.4171 28.3984 51.654 28.7964 51.117 29.0727L50.1397 29.5751L50.1296 30.1856C50.1232 30.5503 50.145 30.8119 50.184 30.8361C50.2406 30.8716 51.0821 30.4547 52.5311 29.6734C53.6141 29.0894 57.8726 26.8361 58.1306 26.7106L58.4171 26.5708L60.4118 27.5184C61.5086 28.0393 62.8252 28.6671 63.3371 28.9132C63.849 29.1597 64.2784 29.3506 64.2907 29.3377C64.3035 29.3252 64.2922 29.0387 64.2664 28.7012L64.2187 28.0877L62.8436 27.4262C62.0876 27.0622 61.272 26.6705 61.0312 26.5556C60.7905 26.4407 60.0979 26.1062 59.4915 25.8121L58.3894 25.2776L57.804 25.5895ZM90.9375 25.5982C90.6454 25.7429 89.9561 26.0794 89.4064 26.3455C88.8562 26.6116 87.8719 27.0894 87.2186 27.4065C86.5657 27.724 85.9706 28.0075 85.8967 28.037C85.782 28.0824 85.635 29.1869 85.7227 29.3438C85.728 29.3536 86.1229 29.1737 86.6006 28.9442C87.078 28.7151 88.1438 28.2071 88.9688 27.8155C89.7937 27.4243 90.7076 26.985 91.0001 26.8399C91.6312 26.5261 91.5615 26.5137 92.7442 27.1521C93.177 27.3857 93.7702 27.7029 94.0624 27.8571C94.3545 28.0113 95.7529 28.7548 97.1693 29.5093C98.5856 30.2634 99.7755 30.8614 99.8134 30.838C99.8573 30.8108 99.8775 30.5742 99.87 30.1875L99.8576 29.58L98.2222 28.7238C97.3226 28.2532 95.7443 27.4337 94.7153 26.9034C93.6859 26.3731 92.5882 25.8011 92.2755 25.6326C91.596 25.2659 91.6076 25.2663 90.9375 25.5982ZM74.2151 27.3033C73.6672 27.5887 72.5438 28.1716 71.7188 28.5987C70.8937 29.0255 69.9094 29.5377 69.5314 29.7361C68.661 30.1935 66.8505 31.1325 66.0158 31.56L65.3749 31.8881V32.6286C65.3749 33.0357 65.3936 33.3876 65.4161 33.4107C65.4532 33.4477 65.8144 33.267 67.5311 32.3515C67.8064 32.2048 68.3408 31.921 68.7188 31.7202C69.5764 31.2655 70.287 30.8875 70.953 30.5314C72.8831 29.5006 75.1897 28.2869 75.2194 28.2869C75.2494 28.2869 78.282 30.0461 80.1562 31.1506C80.4656 31.3328 81.2674 31.8011 81.9375 32.1912C82.6076 32.5817 83.484 33.0958 83.8849 33.3343C84.8194 33.8903 84.7575 33.9126 84.7365 33.0281L84.7189 32.2884L83.8125 31.7614C83.3141 31.4715 82.2454 30.8508 81.4376 30.3821C80.6295 29.913 79.5045 29.2587 78.9375 28.9276C78.3701 28.5968 77.7232 28.2222 77.5001 28.0956C77.2766 27.969 76.7422 27.6598 76.3125 27.4084C75.8828 27.1574 75.4594 26.914 75.3712 26.8679C75.222 26.79 75.1444 26.8191 74.2151 27.3033ZM56.1562 29.8556C54.9874 30.4672 53.2436 31.3748 52.2814 31.8722C51.3188 32.37 50.4435 32.8301 50.3362 32.8947L50.1409 33.0122L50.13 33.6118C50.1157 34.3768 50.118 34.3795 50.5822 34.1232C50.7949 34.0056 51.2921 33.7399 51.6874 33.532C52.422 33.1461 55.296 31.6201 56.8125 30.8108C57.2764 30.5628 57.825 30.2744 58.0312 30.1693L58.4062 29.978L59.7499 30.6199C60.489 30.9729 61.2626 31.3404 61.4689 31.4364C61.6751 31.5328 62.1251 31.7463 62.4686 31.9111C63.7211 32.5114 64.2697 32.7613 64.29 32.7408C64.3012 32.7291 64.293 32.4479 64.2712 32.1156L64.2319 31.5116L63.4755 31.148C63.0592 30.9476 62.2267 30.5454 61.6249 30.254C61.0234 29.9625 60.3484 29.6382 60.1249 29.5331C59.9014 29.4284 59.4397 29.2039 59.0985 29.0353C58.3181 28.6486 58.6271 28.5628 56.1562 29.8556ZM90.9064 29.0353C90.5625 29.2035 90 29.4761 89.6561 29.6416C89.3126 29.8072 88.6095 30.1463 88.0939 30.3954C87.5782 30.6441 86.8425 30.9979 86.4589 31.1808L85.7617 31.5142L85.7374 32.1213C85.7239 32.4555 85.7171 32.7359 85.722 32.745C85.734 32.7677 86.2522 32.5326 87.2186 32.0657C87.6656 31.8499 88.5236 31.4401 89.1251 31.1551C89.7266 30.8705 90.5336 30.4876 90.9184 30.305L91.6181 29.9724L92.9498 30.6838C94.1906 31.3464 95.1176 31.8378 97.4719 33.0799C97.9894 33.3528 98.7206 33.7448 99.0971 33.9512C99.9034 34.3931 99.8902 34.3991 99.864 33.6027L99.8438 32.9805L98.8125 32.4449C98.2451 32.15 96.9795 31.4931 96 30.9847C95.0201 30.4759 93.6424 29.7603 92.9374 29.394C91.437 28.6146 91.6804 28.6573 90.9064 29.0353ZM73.875 31.4114C72.2501 32.2555 70.8589 32.979 67.8908 34.5239L65.3126 35.8654V36.5443C65.3126 36.9174 65.2954 37.2674 65.2747 37.3222C65.253 37.3793 65.2691 37.422 65.3119 37.422C65.3741 37.422 69.8246 35.0871 70.6564 34.6184C70.7936 34.5409 71.2999 34.2714 71.7814 34.0192C72.2625 33.7675 72.7969 33.4847 72.9686 33.3906C73.1407 33.2965 73.6957 33.0009 74.2024 32.7337L75.1237 32.2476L75.4837 32.4649C75.8786 32.7034 76.5521 33.0996 77.5624 33.6874C77.9235 33.8975 78.6266 34.3095 79.125 34.6033C79.6234 34.8973 80.2282 35.2508 80.4686 35.3891C80.9314 35.6548 82.4231 36.525 83.4686 37.1389C83.8125 37.3407 84.2141 37.5751 84.3615 37.6594L84.6289 37.8128L84.6113 37.0372L84.5936 36.2615L84.2501 36.0638C84.0607 35.9546 83.0625 35.3755 82.0312 34.7768C81 34.1776 79.4951 33.3052 78.6874 32.838C77.8796 32.3708 76.7636 31.7225 76.2079 31.3978C74.994 30.6887 75.2692 30.6868 73.875 31.4114ZM58.0939 32.1497C57.9562 32.2287 57.1969 32.629 56.4064 33.0391C55.6155 33.4492 54.6592 33.9474 54.2812 34.1459C53.256 34.6845 51.492 35.5997 50.7656 35.9697L50.1251 36.2963V36.9185C50.1251 37.6503 50.1412 37.6688 50.5744 37.433C50.757 37.3335 51.3 37.0459 51.7811 36.793C52.2626 36.5405 53.0077 36.1432 53.4375 35.91C53.8672 35.6772 54.5842 35.2946 55.0312 35.0606C55.4782 34.8263 56.4052 34.3356 57.0911 33.9705C57.7774 33.605 58.368 33.3067 58.4036 33.3078C58.4396 33.309 59.7536 33.9232 61.3241 34.6728C64.4974 36.1878 64.344 36.1292 64.29 35.7996C64.2686 35.67 64.251 35.3989 64.2506 35.1982L64.2499 34.8327L63.1406 34.2937C62.5305 33.9973 61.4992 33.5006 60.8494 33.1899C60.1991 32.8792 59.4255 32.5031 59.1304 32.3542C58.4029 31.9875 58.3838 31.9837 58.0939 32.1497ZM91.2188 32.1901C90.243 32.6656 88.8064 33.3581 88.4689 33.5157C88.2626 33.6118 87.5662 33.9478 86.922 34.2619L85.7501 34.8331V35.3351C85.7501 35.611 85.7329 35.8816 85.7122 35.9365C85.6365 36.1345 85.4876 36.2003 89.9959 34.0427L91.5938 33.2776L92.4375 33.721C93.213 34.1285 95.6989 35.4488 97.125 36.2105C99.0784 37.2538 99.7819 37.6042 99.828 37.5577C99.8565 37.529 99.8715 37.23 99.8618 36.8932L99.8438 36.2808L98.5312 35.6034C97.8094 35.2307 96.6562 34.6335 95.9689 34.2759C95.2811 33.9183 94.2266 33.3706 93.6251 33.0587C93.0236 32.7469 92.331 32.3821 92.0861 32.2479C91.56 31.9595 91.6755 31.9675 91.2188 32.1901ZM74.559 35.0474C74.2688 35.199 73.4126 35.6431 72.6562 36.0347C71.8999 36.4263 70.9717 36.9087 70.5938 37.1071C70.2158 37.3052 69.3439 37.7584 68.6561 38.1141C66.7324 39.1094 65.3456 39.8317 65.3246 39.8491C65.3006 39.8692 65.2747 41.4541 65.2987 41.4541C65.3081 41.4541 65.547 41.3298 65.8298 41.1782C66.4789 40.83 70.5112 38.6826 71.3438 38.2415C72.8644 37.4367 73.4576 37.1204 74.2189 36.7098C75.2291 36.1644 74.8845 36.1066 76.5938 37.1086C76.6969 37.1691 77.3857 37.5717 78.1249 38.003C78.864 38.4347 80.6164 39.4583 82.0192 40.2782C83.4217 41.098 84.582 41.769 84.5974 41.769C84.6124 41.769 84.6251 41.4311 84.6251 41.0179V40.2668L83.4844 39.6072C82.101 38.8074 78.897 36.9487 76.8124 35.7369C75.9705 35.2474 75.2374 34.8301 75.1841 34.8093C75.1297 34.7885 74.853 34.8939 74.559 35.0474ZM57.927 35.5539C57.7095 35.67 56.9126 36.085 56.1562 36.4762C55.3999 36.8675 54.528 37.3211 54.2186 37.4844C53.9092 37.648 52.9249 38.158 52.0312 38.618C51.1376 39.0784 50.343 39.4942 50.2658 39.5422C50.1345 39.6242 50.0317 40.9499 50.1566 40.9499C50.1739 40.9499 50.3918 40.8403 50.6408 40.7061C51.075 40.4721 54.0521 38.8879 55.0939 38.3364C55.3688 38.1909 56.2147 37.7414 56.9737 37.3373C57.7327 36.9336 58.3702 36.6029 58.3905 36.6029C58.4261 36.6029 61.0267 37.8318 62.6561 38.6187C63.6157 39.0822 64.2495 39.3751 64.293 39.3751C64.3102 39.3751 64.3087 39.2545 64.2904 39.1071C64.2716 38.9601 64.2547 38.6815 64.2532 38.4883L64.2499 38.1376L63.297 37.6741C62.7728 37.419 61.9924 37.0421 61.5626 36.8361C61.1329 36.6301 60.4016 36.2774 59.9374 36.0525C58.2349 35.227 58.4434 35.2787 57.927 35.5539ZM91.422 35.3797C91.4017 35.4001 90.4478 35.8688 89.3021 36.4214C88.1561 36.9737 86.8909 37.5849 86.49 37.7792L85.7614 38.1323L85.7374 38.7378C85.7239 39.0708 85.7183 39.3524 85.725 39.3634C85.7318 39.374 86.0662 39.2254 86.4686 39.0327C86.871 38.8399 87.2081 38.6819 87.2179 38.6819C87.2276 38.6819 87.7943 38.4105 88.4771 38.0786C89.16 37.7467 90.1462 37.2757 90.669 37.0319L91.6196 36.5885L93.0127 37.3305C93.7793 37.7384 94.6736 38.2128 94.9999 38.3851C96.6686 39.264 97.0365 39.4598 97.0939 39.501C97.128 39.5256 97.6208 39.7887 98.1881 40.0854C98.7559 40.3825 99.3465 40.6981 99.5006 40.787C99.6551 40.8758 99.8025 40.9487 99.828 40.9491C99.9124 40.9506 99.8828 39.6484 99.7969 39.5808C99.7538 39.5471 98.9595 39.1287 98.0314 38.6509C97.1032 38.1731 96.0907 37.6488 95.7814 37.4851C95.472 37.3215 94.6564 36.8962 93.9686 36.5397C93.2812 36.1833 92.4866 35.7682 92.2027 35.6174C91.716 35.3585 91.506 35.295 91.422 35.3797ZM74.5939 38.4929L74.0314 38.7991L74.0152 43.8971L73.9991 48.9952L72.984 49.0326C72.4256 49.0531 70.464 49.1555 68.625 49.2602C65.415 49.4435 64.7854 49.481 63.75 49.552C63.1331 49.594 60.1012 49.7626 59.1874 49.8053C58.7921 49.8238 58.3912 49.851 58.2967 49.8661L58.125 49.893V46.0147C58.125 43.8816 58.104 42.1459 58.0781 42.1576C58.0522 42.1689 57.7853 42.3156 57.4845 42.4827L56.9374 42.7873V46.3647V49.9421L56.1405 49.986C55.7025 50.0105 55.1749 50.0427 54.9686 50.0578C54.7624 50.0729 53.0749 50.1704 51.2186 50.2748C49.3624 50.3795 47.6186 50.4781 47.3437 50.4944C47.0689 50.511 46.1407 50.5662 45.2812 50.6172C44.4217 50.6686 43.1985 50.7397 42.5625 50.7756C39.2392 50.9631 38.0501 51.0319 37.6249 51.0621C37.3672 51.0803 36.6641 51.123 36.0626 51.157C32.628 51.3505 28.2064 51.6042 27.3124 51.6582C26.7454 51.6926 25.2266 51.7781 23.9374 51.848C22.6485 51.9179 21.453 51.9886 21.2812 52.0052C21.1095 52.0223 20.7367 52.0415 20.4532 52.0487C20.0764 52.0585 19.9376 52.0842 19.9376 52.1443C19.9376 52.2124 29.6415 52.2271 75 52.2271C120.244 52.2271 130.062 52.2124 130.062 52.1447C130.062 52.0854 129.928 52.0589 129.578 52.0498C129.312 52.0427 128.925 52.0238 128.719 52.0075C128.293 51.9739 128.159 51.9659 124.437 51.7539C122.942 51.6688 120.762 51.5422 119.594 51.473C118.425 51.4038 117.188 51.332 116.844 51.3135C115.816 51.2583 113.003 51.0969 112.5 51.064C112.242 51.047 111.778 51.019 111.469 51.0013C111.159 50.9831 110.667 50.9536 110.375 50.9355C110.083 50.9174 108.831 50.8467 107.594 50.779C106.356 50.711 105.147 50.6407 104.906 50.6225C104.665 50.6047 104.174 50.5745 103.812 50.5556C103.452 50.5363 102.959 50.508 102.719 50.4925C102.303 50.4653 101.215 50.4018 97.3125 50.1761C96.3671 50.1217 95.0314 50.0434 94.3436 50.0022L93.0938 49.9274L93.0776 46.3591L93.0615 42.7907L92.5001 42.4687C92.1911 42.2918 91.9241 42.147 91.9069 42.147C91.8892 42.147 91.875 43.8763 91.875 45.9901V49.8329L91.6095 49.8325C91.3643 49.8321 89.5429 49.7285 85.5938 49.4908C84.7343 49.439 82.9766 49.3377 81.6874 49.2659C80.3985 49.1937 79.0061 49.112 78.5936 49.0844C77.8616 49.0349 76.629 48.9933 75.6874 48.9862L75.2186 48.9824L75.1875 43.5845L75.1564 38.1867L74.5939 38.4929ZM56.5939 39.6643C55.6312 40.1659 54.0195 41.0036 53.0122 41.5256C52.0046 42.0472 50.9501 42.5957 50.6685 42.7442L50.1562 43.0145L50.1382 43.5997C50.1281 43.9217 50.1349 44.2241 50.1529 44.2717C50.1851 44.3564 50.4769 44.2173 52.0939 43.3441C52.3343 43.2145 52.8266 42.9521 53.1874 42.762C53.5485 42.5715 54.1811 42.2377 54.5936 42.0204C55.0061 41.8026 55.7235 41.4201 56.1874 41.1706C56.6516 40.9208 57.3405 40.5537 57.7189 40.3549L58.4062 39.9935L60.1792 40.8497C61.1542 41.3207 61.962 41.7059 61.9736 41.7059C61.9856 41.7059 62.4112 41.9066 62.9194 42.1515C63.4279 42.3965 63.936 42.641 64.0492 42.6951C64.3192 42.8244 64.3166 42.8304 64.2716 42.1398L64.233 41.543L62.3194 40.618C59.316 39.1653 58.4306 38.7446 58.3856 38.7484C58.3628 38.7503 57.5561 39.1623 56.5939 39.6643ZM90.999 39.0172C90.7065 39.1619 89.4056 39.7902 88.1085 40.4131L85.7501 41.546L85.749 42.0196C85.7486 42.2804 85.7314 42.5571 85.7107 42.6354C85.6571 42.8372 85.6976 42.8251 86.6955 42.3432C87.1894 42.1047 88.0436 41.6968 88.5938 41.4367C89.1439 41.1767 89.9314 40.8017 90.3439 40.6029C90.7564 40.404 91.2157 40.1882 91.365 40.1232L91.6361 40.0045L92.1461 40.2804C92.4266 40.432 92.9516 40.7121 93.3124 40.903C93.6735 41.0939 94.4467 41.5044 95.0314 41.8155C95.6156 42.1266 96.417 42.553 96.8126 42.7628C97.2079 42.9729 98.0374 43.4148 98.6561 43.7444C99.9503 44.4343 99.8884 44.4422 99.8618 43.5917L99.8438 43.0179L99.4061 42.7832C99.1658 42.6539 98.2234 42.1636 97.3125 41.6938C96.4016 41.2239 95.4172 40.7125 95.1251 40.5571C93.8812 39.8953 91.6264 38.7454 91.5806 38.7495C91.5536 38.7518 91.2919 38.8724 90.999 39.0172Z" fill="#B4945C"/>
<path fill-rule="evenodd" clip-rule="evenodd" d="M118.938 55.0334C110.504 56.5798 108.868 68.7986 116.594 72.5423C121.954 75.14 128.103 71.8808 129.129 65.8979C130.23 59.4772 125.016 53.9187 118.938 55.0334ZM46.1415 55.6737C46.0039 56.0128 45.5329 57.1411 45.0952 58.1806C44.6576 59.2201 43.8769 61.0769 43.3609 62.3069C41.7405 66.1685 40.6736 68.7094 39.5377 71.4106C39.1732 72.2766 38.8751 73.0209 38.8751 73.0644C38.8751 73.1237 39.1027 73.143 39.8055 73.143H40.7362L40.9935 72.5287C41.1352 72.1908 41.6407 70.9789 42.1174 69.8355L42.9836 67.7565L46.8199 67.7418L50.6561 67.7274L51.7624 70.4195L52.8682 73.1116L53.8091 73.129C54.9281 73.1494 54.8722 73.2348 54.4312 72.1757C53.9662 71.0583 53.1949 69.2205 52.4981 67.5675C52.1621 66.7707 51.8167 65.9485 51.7312 65.7406C51.6454 65.5327 51.4635 65.0931 51.3266 64.7639C51.1897 64.4346 50.889 63.7119 50.6587 63.1574C50.4281 62.6032 49.8881 61.3131 49.458 60.291C49.0282 59.2689 48.4511 57.8937 48.1755 57.2356C47.8999 56.5771 47.5826 55.8261 47.4709 55.566L47.2672 55.0935L46.8296 55.075L46.392 55.0568L46.1415 55.6737ZM63.5152 55.1139C63.453 55.154 63.4402 57.0005 63.453 64.1379L63.4687 73.1116L64.359 73.129L65.2496 73.1464L65.2654 66.0317L65.2811 58.917L66.2501 60.1201C66.783 60.7816 67.4437 61.5981 67.7186 61.9342C67.9939 62.2702 68.5016 62.8958 68.847 63.3237C69.1927 63.752 71.1435 66.1651 73.1816 68.6856L76.8877 73.2689H77.2875H77.6876V64.2286V55.188H76.7816H75.8756L75.8595 62.2199L75.8438 69.2519L73.8671 66.8032C72.0019 64.4925 69.7601 61.7198 68.907 60.669C68.6962 60.4093 68.2035 59.7996 67.8124 59.3146C66.5047 57.6926 66.3439 57.493 65.3869 56.3125C64.863 55.6662 64.3909 55.1203 64.3372 55.0995C64.1959 55.0451 63.6071 55.0553 63.5152 55.1139ZM22.0001 64.161V73.143H22.9061H23.8125V69.8041V66.4649L25.7344 66.4641C27.9037 66.4634 28.3609 66.4051 29.3257 66.0086C34.0612 64.0627 33.8494 57.2522 29.0002 55.5543C28.1149 55.2439 28.0001 55.2341 24.9217 55.2061L22.0001 55.1793V64.161ZM88.6875 64.1697V73.1509L91.9845 73.1275C96.09 73.0984 96.7466 72.9944 98.4945 72.0974C104.752 68.8863 104.67 59.2099 98.3603 56.1379C96.6851 55.3226 95.7465 55.1891 91.6717 55.1884L88.6875 55.188V64.1697ZM121.738 56.8648C128.923 58.1451 129.351 69.3331 122.293 71.346C117.091 72.8296 112.394 67.9009 113.7 62.3303C114.608 58.4592 117.946 56.1893 121.738 56.8648ZM28.0312 57.1041C30.2962 57.7641 31.3864 59.9447 30.6161 62.2744C30.0079 64.1141 28.6305 64.7639 25.3391 64.7639H23.8125V60.8531V56.9423L25.7344 56.9688C27.3157 56.9903 27.7226 57.0145 28.0312 57.1041ZM95.6944 57.1305C99.0529 57.9595 101.057 60.4051 101.228 63.882C101.403 67.4307 99.3487 70.218 95.8751 71.1468L95.1562 71.3388L92.8282 71.3641L90.4999 71.3894V64.1655V56.9415L92.8282 56.9695C94.926 56.9948 95.2095 57.0111 95.6944 57.1305ZM48.3832 62.2917C49.2037 64.2759 49.875 65.9134 49.875 65.93C49.875 65.947 48.4969 65.961 46.8124 65.961C45.1282 65.961 43.7501 65.9398 43.7501 65.9137C43.7501 65.8877 43.8934 65.5259 44.0689 65.1105C44.2444 64.6947 44.8807 63.1778 45.4826 61.7399C46.0849 60.302 46.6361 58.9865 46.7074 58.8164C46.779 58.6463 46.8495 58.5473 46.8645 58.596C46.8795 58.6448 47.5631 60.308 48.3832 62.2917Z" fill="#343444"/>
<path fill-rule="evenodd" clip-rule="evenodd" d="M65.2733 36.6346C65.2736 37.0156 65.2838 37.1634 65.2961 36.9631C65.3089 36.7624 65.3085 36.4505 65.2961 36.2699C65.2834 36.0892 65.2733 36.2532 65.2733 36.6346ZM65.2733 40.635C65.2733 40.9986 65.2834 41.1476 65.2961 40.9657C65.3089 40.7839 65.3089 40.4861 65.2961 40.3042C65.2834 40.1224 65.2733 40.271 65.2733 40.635Z" fill="#949850"/>
<path fill-rule="evenodd" clip-rule="evenodd" d="M65.2733 36.6346C65.2736 37.0156 65.2838 37.1634 65.2961 36.9631C65.3089 36.7624 65.3085 36.4505 65.2961 36.2699C65.2834 36.0892 65.2733 36.2532 65.2733 36.6346ZM65.2733 40.635C65.2733 40.9986 65.2834 41.1476 65.2961 40.9657C65.3089 40.7839 65.3089 40.4861 65.2961 40.3042C65.2834 40.1224 65.2733 40.271 65.2733 40.635Z" fill="#949850"/>
<path fill-rule="evenodd" clip-rule="evenodd" d="M65.2733 36.6346C65.2736 37.0156 65.2838 37.1634 65.2961 36.9631C65.3089 36.7624 65.3085 36.4505 65.2961 36.2699C65.2834 36.0892 65.2733 36.2532 65.2733 36.6346ZM65.2733 40.635C65.2733 40.9986 65.2834 41.1476 65.2961 40.9657C65.3089 40.7839 65.3089 40.4861 65.2961 40.3042C65.2834 40.1224 65.2733 40.271 65.2733 40.635Z" fill="#949850"/>
</svg>
