<svg width="52" height="52" viewBox="0 0 52 52" fill="#000" xmlns="http://www.w3.org/2000/svg">
<g clip-path="url(#clip0)">
<path d="M32.115 11.9453H32.1757C32.1758 11.9453 32.1285 11.8264 32.115 11.9453Z" fill="white"/>
<path d="M17.4431 11.9453H17.5038C17.4903 11.8264 17.4431 11.9453 17.4431 11.9453Z" fill="white"/>
<path d="M46.7692 15.686C46.4283 15.1417 45.8959 14.7628 45.27 14.619L41.9736 13.8615L43.4956 13.4355C44.7567 13.0825 45.5165 11.7356 45.163 10.4722C44.81 9.21107 43.4632 8.45148 42.1996 8.80482L35.1028 10.7911C34.9181 10.4549 34.6553 10.1672 34.3388 9.95308C35.7791 7.27274 37.8541 2.72426 37.8541 0.767448C37.8541 0.290205 37.403 -0.0790774 36.9349 0.0152743C34.1184 0.584229 31.4925 0.846768 28.9103 0.818635C26.2561 0.789487 22.9527 0.459814 20.8772 0.0170009C20.2355 -0.119906 19.7206 0.598143 20.059 1.16222C20.5648 2.00519 20.8747 2.89651 21.045 3.79483C18.44 3.87466 15.7385 3.559 13.6939 2.53657C13.1431 2.26113 12.493 2.74305 12.5938 3.34907C13.2368 7.20713 14.5342 9.46914 15.8349 11.1781H15.8061C14.4804 11.1781 13.4018 12.2567 13.4018 13.5824C13.4018 14.8017 14.3143 15.8111 15.492 15.9656C14.6335 17.4035 13.4075 18.7678 12.1193 20.1994C9.3798 23.2439 6.27473 26.6946 5.23005 32.2662C4.73016 34.9321 4.74682 37.4266 5.27972 39.6805C5.77717 41.7847 6.72465 43.6893 8.09564 45.3413C9.91555 47.5342 12.4159 49.2357 15.5272 50.3988C18.3298 51.4464 21.5395 52.0001 24.8094 52.0001C28.0793 52.0001 31.2891 51.4464 34.0916 50.3988C37.2029 49.2357 39.7033 47.5341 41.5232 45.3413C42.8942 43.6893 43.8417 41.7848 44.3391 39.6805C44.8719 37.4266 44.8887 34.932 44.3888 32.2662C43.3441 26.6947 40.2391 23.244 37.4997 20.1995C36.5697 19.1659 35.6848 18.1805 34.943 17.1803L44.1933 19.3056C45.1732 19.5308 46.2175 19.1021 46.7588 18.2552C47.2543 17.4799 47.2572 16.4648 46.7692 15.686ZM28.8935 2.35315C31.2561 2.37894 33.6473 2.17236 36.1731 1.72224C35.7099 3.61567 34.2228 6.98329 32.8121 9.54866C31.8346 9.62229 31.0187 10.2827 30.7162 11.178H28.5858C28.5377 11.0743 28.4844 10.9607 28.4249 10.8344C27.7662 9.4341 26.3953 6.52026 26.3953 4.04132C26.3953 3.56479 25.9453 3.1953 25.4775 3.28894C24.5846 3.46759 23.6021 3.61212 22.5799 3.70271C22.4728 3.06246 22.3065 2.42119 22.0648 1.79049C24.1265 2.1096 26.7236 2.32928 28.8935 2.35315ZM33.8639 11.9452V15.2192C33.8639 15.6987 33.4738 16.0889 32.9942 16.0889C32.5147 16.0889 32.1246 15.6988 32.1246 15.2192V11.9452C32.1246 11.4657 32.5147 11.0756 32.9942 11.0756C33.4738 11.0756 33.8639 11.4658 33.8639 11.9452ZM14.3825 4.47956C16.3008 5.13434 18.6606 5.42471 21.2091 5.33513L22.7299 5.23905C23.4473 5.17324 24.1751 5.07848 24.9082 4.95447C25.1475 7.3284 26.232 9.76773 26.8909 11.178H21.7816H20.1674H17.7933C17.7761 11.1511 17.7576 11.1247 17.7368 11.0995C16.4533 9.55547 15.151 7.76949 14.3825 4.47956ZM36.3588 21.2258C38.9634 24.1202 41.9151 27.4006 42.8806 32.5488C43.7689 37.2869 42.9149 41.261 40.3422 44.3608C37.17 48.1831 31.3634 50.4652 24.8095 50.4652C18.2557 50.4652 12.4489 48.1832 9.27672 44.3609C6.70403 41.2611 5.85009 37.287 6.73836 32.5489C7.70371 27.4006 10.6556 24.1201 13.2601 21.2258C14.8174 19.4951 16.2886 17.8581 17.2315 15.9866H19.1055C19.5295 15.9866 19.8729 15.643 19.8729 15.2193C19.8729 14.7955 19.5294 14.452 19.1055 14.452H15.806C15.3264 14.452 14.9363 14.0619 14.9363 13.5823C14.9363 13.1027 15.3264 12.7126 15.806 12.7126H30.5899V14.4519H22.763C22.3391 14.4519 21.9957 14.7955 21.9957 15.2192C21.9957 15.6429 22.3392 15.9865 22.763 15.9865H30.7161C31.0371 16.9369 31.9367 17.6235 32.9941 17.6235C33.1163 17.6235 33.2362 17.6142 33.3536 17.5966C34.21 18.8354 35.2538 19.9979 36.3588 21.2258ZM35.3986 12.3019L42.6132 10.2828C43.07 10.1547 43.5575 10.4299 43.685 10.8858C43.8128 11.3428 43.5381 11.8301 43.082 11.9576L38.9589 13.1116C38.9253 13.121 38.8932 13.1332 38.862 13.1467L35.3986 12.351V12.3019ZM45.5792 17.1568C45.4717 17.6242 45.005 17.9172 44.5368 17.8097L35.3504 15.699C35.3819 15.5439 35.3985 15.3834 35.3985 15.2191V13.9254L44.9262 16.1145C45.3881 16.2206 45.6853 16.6946 45.5792 17.1568Z" fill="white"/>
<path d="M29.7204 31.5378C30.8204 31.5378 31.7155 30.6429 31.7155 29.5427V28.315C31.7155 25.4441 29.5742 23.064 26.8046 22.6885V21.3579C26.8046 20.2579 25.9096 19.3628 24.8095 19.3628C23.7094 19.3628 22.8144 20.2578 22.8144 21.3579V22.79C19.9709 23.4243 17.9034 25.9521 17.9034 28.9289C17.9034 32.3984 20.726 35.221 24.1955 35.221H25.4232C26.6924 35.221 27.7252 36.2536 27.7252 37.523C27.7252 38.7924 26.6925 39.825 25.4232 39.825H23.5816C22.6506 39.825 21.8934 39.0677 21.8934 38.1369C21.8934 37.0368 20.9984 36.1418 19.8983 36.1418C18.7983 36.1418 17.9032 37.0367 17.9032 38.1369C17.9032 41.0078 20.0445 43.3879 22.8142 43.7634V45.094C22.8142 46.194 23.7091 47.0891 24.8093 47.0891C25.9093 47.0891 26.8043 46.1941 26.8043 45.094V43.6619C29.6478 43.0276 31.7153 40.4998 31.7153 37.523C31.7153 34.0535 28.8927 31.2309 25.4232 31.2309H24.1955C22.9263 31.2309 21.8935 30.1983 21.8935 28.9289C21.8935 27.6595 22.9262 26.6269 24.1955 26.6269H26.0371C26.9681 26.6269 27.7253 27.3842 27.7253 28.315V29.5427C27.7253 30.6428 28.6204 31.5378 29.7204 31.5378ZM26.0372 25.0922H24.1956C22.0801 25.0922 20.359 26.8133 20.359 28.9289C20.359 31.0444 22.0801 32.7655 24.1956 32.7655H25.4233C28.0467 32.7655 30.1808 34.8998 30.1808 37.523C30.1808 39.9503 28.3629 41.9824 25.9525 42.2503C25.564 42.2934 25.2699 42.6219 25.2699 43.0129V45.094C25.2699 45.3478 25.0634 45.5544 24.8096 45.5544C24.5558 45.5544 24.3492 45.3478 24.3492 45.094V43.0478C24.3492 42.624 24.0057 42.2805 23.5819 42.2805C21.297 42.2805 19.4383 40.4217 19.4383 38.137C19.4383 37.8832 19.6449 37.6766 19.8987 37.6766C20.1525 37.6766 20.3591 37.8832 20.3591 38.137C20.3591 39.914 21.8048 41.3598 23.5819 41.3598H25.4235C27.5391 41.3598 29.2601 39.6387 29.2601 37.5231C29.2601 35.4076 27.5391 33.6865 25.4235 33.6865H24.1958C21.5725 33.6865 19.4383 31.5522 19.4383 28.929C19.4383 26.5017 21.2562 24.4696 23.6666 24.2017C24.0552 24.1586 24.3492 23.8301 24.3492 23.4391V21.358C24.3492 21.1042 24.5558 20.8976 24.8096 20.8976C25.0634 20.8976 25.2699 21.1042 25.2699 21.358V23.4042C25.2699 23.828 25.6134 24.1715 26.0372 24.1715C28.3221 24.1715 30.1808 26.0303 30.1808 28.315V29.5427C30.1808 29.7965 29.9742 30.0031 29.7204 30.0031C29.4666 30.0031 29.26 29.7965 29.26 29.5427V28.315C29.26 26.538 27.8143 25.0922 26.0372 25.0922Z" fill="white"/>
</g>
<defs>
<clipPath id="clip0">
<rect width="52" height="52" fill="#000"/>
</clipPath>
</defs>
</svg>