<svg width="52" height="53" viewBox="0 0 52 53" fill="none" xmlns="http://www.w3.org/2000/svg">
<path d="M51.2368 50.5544H46.3013V20.3824C46.3013 19.9609 45.9597 19.6191 45.5381 19.6191H37.3972C36.9757 19.6191 36.634 19.9609 36.634 20.3824V50.5544H30.8337V29.3373C30.8337 28.9158 30.492 28.5741 30.0704 28.5741H21.9296C21.508 28.5741 21.1663 28.9158 21.1663 29.3373V50.5544H15.366V33.4077C15.366 32.9862 15.0243 32.6445 14.6028 32.6445H6.46191C6.04033 32.6445 5.69867 32.9862 5.69867 33.4077V50.5543H0.763242C0.341656 50.5543 0 50.8961 0 51.3176C0 51.739 0.341656 52.0808 0.763242 52.0808H51.2368C51.6583 52.0808 52 51.739 52 51.3176C51.9999 50.8961 51.6583 50.5544 51.2368 50.5544ZM13.8395 50.5544H7.22505V34.1709H13.8395V50.5544ZM29.3073 50.5544H22.6928V30.1005H29.3073V50.5544ZM44.7749 50.5544H38.1605V21.1456H44.7749V50.5544Z" fill="white"/>
<path d="M49.5633 0.679565C49.0489 0.225478 48.3643 0.0139233 47.6838 0.0994391L41.1711 0.913566C39.8782 1.07515 38.9331 2.28872 39.0949 3.58294C39.2583 4.89076 40.4548 5.8228 41.7643 5.65929L42.2957 5.59297C34.3022 14.8612 24.7994 19.6511 18.0842 22.0583C9.71133 25.06 3.19438 25.3167 3.1309 25.3189C1.81435 25.36 0.775565 26.4647 0.815377 27.7815C0.854783 29.0819 1.90423 30.1005 3.20474 30.1005C3.22891 30.1005 3.25318 30.1001 3.27806 30.0993C3.56782 30.0906 10.4762 29.8466 19.5777 26.6035C24.6942 24.7803 29.5087 22.3599 33.8872 19.4099C34.2367 19.1744 34.3292 18.6999 34.0935 18.3505C33.8581 18.0008 33.3838 17.9085 33.0341 18.144C28.7616 21.0229 24.0618 23.3853 19.0653 25.1657C10.1875 28.3291 3.51156 28.5651 3.23236 28.5736L3.20474 28.574C2.7347 28.574 2.35527 28.2056 2.34105 27.7353C2.32663 27.2589 2.70241 26.8594 3.17894 26.8445C3.24556 26.8423 9.94848 26.5963 18.5994 23.4951C25.8468 20.897 36.2604 15.5921 44.7137 5.07388C45.1346 4.55022 44.6897 3.75509 44.0243 3.83847L41.5754 4.14458C41.1509 4.19709 40.7386 3.91891 40.6308 3.50433C40.5012 3.00545 40.8498 2.49195 41.3606 2.42797L47.8735 1.61384C48.3821 1.54955 48.8456 1.96058 48.8456 2.47215V8.98485C48.8456 9.46179 48.4576 9.84986 47.9806 9.84986C47.5035 9.84986 47.1156 9.46189 47.1156 8.98485V7.01048C47.1156 6.69858 46.9139 6.40689 46.6222 6.29669C46.3208 6.18284 45.9648 6.27841 45.761 6.52785C42.9105 10.0207 39.6647 13.1813 36.1138 15.9219C35.7802 16.1795 35.7183 16.6587 35.9759 16.9925C36.2335 17.3262 36.7129 17.3878 37.0465 17.1304C40.1396 14.7432 43.0067 12.0455 45.5916 9.09261C45.6481 10.3614 46.698 11.3765 47.9807 11.3765C49.2993 11.3765 50.3721 10.3036 50.3721 8.98506V2.47235C50.372 1.7868 50.0772 1.13325 49.5633 0.679565Z" fill="white"/>
</svg>
